PathFileType	3	(X/Y/Z)	E:\ViconData\BIOM9541 2025\Week 7\Wed1100\Hanif deep squat 5 Squat 01.trc
DataRate	CameraRate	NumFrames	NumMarkers	Units	OrigDataRate	OrigDataStartFrame	OrigNumFrames
200.0	200.0	8	19	mm	200.0	1486	1698	
Frame#	Time	C7			CLAV			RBAK			LASI			RASI			LPSI			RPSI			LTHI			LKNE			LTIB			LANK			LHEE			LTOE			RTHI			RKNE			RTIB			RANK			RHEE			RTOE			
		X1	Y1	Z1	X2	Y2	Z2	X3	Y3	Z3	X4	Y4	Z4	X5	Y5	Z5	X6	Y6	Z6	X7	Y7	Z7	X8	Y8	Z8	X9	Y9	Z9	X10	Y10	Z10	X11	Y11	Z11	X12	Y12	Z12	X13	Y13	Z13	X14	Y14	Z14	X15	Y15	Z15	X16	Y16	Z16	X17	Y17	Z17	X18	Y18	Z18	X19	Y19	Z19	
1486	7.425	242.71718	1251.2291	-1216.8468	114.57542	1148.7008	-1202.5063	279.92462	1172.9631	-1360.6156	243.2449	810.92725	-1073.8065	237.6839	818.1845	-1337.7261	402.9734	888.7854	-1165.9719	402.7393	884.5417	-1235.0419	218.0536	552.216	-942.76642	179.14687	413.34454	-928.70392	250.08461	212.46364	-935.34784	299.28094	63.743755	-974.12927	319.0632	52.550713	-1036.012	160.03275	38.222935	-942.05286	288.2764	703.27045	-1417.8441	200.89	409.42126	-1482.5363	224.58034	322.32037	-1487.0643	296.11462	71.849724	-1431.3616	314.98587	51.397209	-1361.0969	163.00194	40.677574	-1471.5001	
1487	7.43	242.45303	1255.0441	-1216.8121	113.63483	1152.8138	-1201.6829	279.65259	1176.8243	-1360.6205	242.0461	814.68597	-1073.9167	236.5856	821.8874	-1337.8787	401.7713	892.5232	-1165.9723	401.5308	888.1015	-1235.0552	218.82489	553.54083	-944.18201	181.35922	414.24588	-930.71448	251.22568	212.86952	-936.2348	299.47174	63.712528	-974.1618	319.2641	52.466568	-1035.9711	160.07213	38.174469	-942.09644	287.7117	705.59802	-1417.4995	203.35872	410.40295	-1480.5988	226.78647	323.20926	-1485.6029	296.36716	71.927155	-1431.3138	315.12012	51.373962	-1361.0437	163.03798	40.748615	-1471.4889	
1488	7.435	242.21725	1258.8317	-1216.8042	113.43288	1157.0908	-1206.3317	279.40012	1180.6113	-1360.606	240.76718	818.3316	-1073.9443	235.4235	825.4435	-1337.822	400.572	896.1805	-1165.9775	400.0354	892.0666	-1234.5868	219.57071	554.82416	-945.53601	183.58781	415.14163	-932.73431	252.33775	213.39413	-937.00671	299.62158	63.683792	-974.20013	319.41815	52.384384	-1035.8978	160.07814	38.201244	-942.1781	287.1088	707.78717	-1417.1604	205.83418	411.32712	-1478.7214	228.99422	323.95486	-1483.9757	296.62247	71.948647	-1431.2972	315.28482	51.302299	-1361.1862	163.06627	40.767597	-1471.4844	
1489	7.44	241.95679	1262.5599	-1216.766	112.57883	1160.934	-1205.6028	279.07635	1184.3282	-1360.5148	239.55154	821.85938	-1074.0444	234.2505	828.827	-1337.8864	399.3254	899.6579	-1165.9983	399.2752	895.4724	-1235.1823	220.28166	556.12476	-946.9339	185.83459	416.07141	-934.83148	253.45255	213.92212	-937.89691	299.82486	63.729473	-974.26782	319.53925	52.252331	-1035.8462	160.05334	38.209003	-942.21118	286.44519	709.98859	-1416.7871	208.31673	412.13098	-1476.7163	231.14128	324.65121	-1482.4426	296.84082	71.905838	-1431.2729	315.50195	51.197037	-1361.3666	163.10587	40.698933	-1471.4279	
1490	7.445	241.68068	1266.1433	-1216.7334	112.2282	1164.644	-1205.3363	278.75168	1187.9766	-1360.3942	238.23253	825.3064	-1074.0958	232.9952	832.2715	-1337.8146	398.0924	903.1243	-1166.0742	397.7892	899.2476	-1234.8044	221.00258	557.35535	-948.38538	188.0285	417.01401	-936.88983	254.58429	214.37799	-938.74457	299.94708	63.729702	-974.26526	319.64941	52.109249	-1035.7849	160.02524	38.245743	-942.29309	285.81577	712.08667	-1416.4994	210.74693	412.94391	-1474.6591	233.27278	325.32486	-1480.7723	297.16541	71.563339	-1431.006	315.73712	51.98642	-1360.5338	163.11903	40.685535	-1471.3877	
1491	7.45	241.38605	1269.7012	-1216.6127	111.88677	1168.3065	-1205.12	278.41846	1191.5428	-1360.3535	236.98775	828.53613	-1074.2239	231.7512	835.6539	-1337.7639	396.7788	906.4649	-1165.9589	396.489	902.5788	-1234.7582	221.69704	558.58246	-949.76685	190.2428	417.78687	-939.0257	255.63725	214.77542	-939.59656	300.04755	63.727043	-974.24908	319.75696	52.128078	-1035.7368	160.01538	38.29887	-942.31134	285.09244	714.50079	-1416.3644	213.18239	413.85657	-1472.6743	235.46378	326.09805	-1479.2607	297.51117	71.641319	-1431.0562	316.00391	51.84	-1360.6897	163.13318	40.780407	-1471.2906	
1492	7.455	241.08823	1273.1111	-1216.4802	111.5502	1171.6458	-1204.6843	278.11859	1194.9686	-1360.3105	235.69342	831.72626	-1074.3127	230.516	838.9634	-1337.8185	395.4141	909.6119	-1165.9016	395.2028	905.7979	-1234.7299	222.37329	559.46954	-951.27863	192.45526	418.55368	-941.15918	256.67206	215.11833	-940.53754	300.17639	63.695377	-974.23932	319.8985	52.178848	-1035.6615	160.02443	38.292328	-942.32086	284.36496	716.52307	-1415.974	215.65213	414.68881	-1470.5835	237.56665	326.86728	-1477.5771	297.56265	72.120102	-1431.2112	316.1922	51.091602	-1361.5502	163.15961	40.827171	-1471.1613	
1493	7.46	240.84724	1276.4246	-1216.3875	111.67908	1174.8582	-1201.4718	277.82251	1198.2794	-1360.21	234.36723	834.81531	-1074.3938	229.3222	841.9782	-1337.7339	394.213	912.7436	-1166.0094	393.9992	909.0192	-1234.7905	223.02927	560.56934	-952.69977	194.64191	419.29248	-943.28491	257.74402	215.44893	-941.49341	300.33621	63.653751	-974.28979	320.06992	52.095417	-1035.6073	160.04021	38.289688	-942.37494	283.73184	718.34961	-1415.6562	218.15456	415.35367	-1468.4503	239.82994	327.42642	-1476.0237	297.88116	72.181015	-1431.1918	316.37872	50.990532	-1361.6282	163.21019	40.832687	-1471.0793	
